<svg width="28" height="28" viewBox="0 0 28 28" fill="none" xmlns="http://www.w3.org/2000/svg">
<g clip-path="url(#clip0_7982_2)">
<rect width="27.792" height="27.792" rx="6" fill="#0B68F7"/>
<path d="M13.6748 6.34898L13.6758 6.34995L13.6777 6.34898L13.6768 6.34995C13.885 6.35317 14.0869 6.42218 14.252 6.54917C14.4174 6.67646 14.5374 6.85406 14.5938 7.05503L17.4717 17.2904L18.8877 13.5169C18.9568 13.3326 19.0804 13.1731 19.2422 13.0609C19.4039 12.9488 19.5962 12.8892 19.793 12.889H42.1826C42.4391 12.8891 42.6848 12.9909 42.8662 13.1722C43.0477 13.3537 43.1504 13.6002 43.1504 13.8568C43.1503 14.1133 43.0476 14.359 42.8662 14.5404C42.6848 14.7217 42.4391 14.8235 42.1826 14.8236H20.4639L18.2461 20.7367C18.1745 20.9274 18.0448 21.0909 17.875 21.2035C17.705 21.3161 17.5035 21.3722 17.2998 21.3636C17.0961 21.355 16.9002 21.2821 16.7402 21.1556C16.5803 21.0291 16.4644 20.8549 16.4092 20.6585L13.6123 10.7152L12.541 14.1449C12.4796 14.3416 12.3564 14.5139 12.1904 14.6361C12.0245 14.758 11.824 14.8234 11.6182 14.8236H-9.18262C-9.43911 14.8235 -9.68481 14.7217 -9.86621 14.5404C-10.0476 14.359 -10.1503 14.1133 -10.1504 13.8568C-10.1504 13.6002 -10.0477 13.3537 -9.86621 13.1722C-9.68482 12.9909 -9.43907 12.8891 -9.18262 12.889H10.9072L12.7383 7.02769L12.7959 6.88316C12.8653 6.74437 12.9677 6.6234 13.0947 6.5316C13.2626 6.41032 13.4649 6.34772 13.6719 6.34995L13.6729 6.34898H13.6748Z" fill="white" stroke="white" stroke-width="0.3"/>
</g>
<defs>
<clipPath id="clip0_7982_2">
<rect width="27.792" height="27.792" rx="6" fill="white"/>
</clipPath>
</defs>
</svg>
